<svg width="253" height="188" viewBox="0 0 253 188" fill="none" xmlns="http://www.w3.org/2000/svg">
<g clip-path="url(#clip0)">
<path d="M36 180C36 180 57.443 177.136 36 127C14.5569 76.8641 55.3993 41.6486 89.187 38.3311C122.975 35.0136 76.5226 85.8356 110.75 98.1089C144.976 110.382 167.988 57.1945 130.908 33.1755C83.055 2.18046 190.701 -32.8494 224.778 59.3074C250.14 127.899 215.147 180 215.147 180H36Z" fill="url(#paint0_linear)"/>
<path d="M178.979 14.7461C180.157 14.7461 181.198 14.9202 182.101 15.2683C183.004 15.6006 183.701 16.0912 184.19 16.74C184.695 17.3888 184.948 18.1483 184.948 19.0187C184.948 20.3162 184.382 21.416 183.249 22.318C182.132 23.22 180.594 23.8767 178.635 24.2881V27.7537H178.176V24.0745C179.232 23.5365 179.936 22.9035 180.288 22.1756C180.655 21.4319 180.839 20.5299 180.839 19.4696C180.839 18.0296 180.609 16.9615 180.15 16.2652C179.691 15.569 179.071 15.2208 178.29 15.2208C177.862 15.2208 177.487 15.2604 177.165 15.3395C176.844 15.4186 176.614 15.5294 176.477 15.6718C176.982 15.8617 177.357 16.1307 177.602 16.4789C177.846 16.8112 177.969 17.2384 177.969 17.7606C177.969 18.3303 177.762 18.805 177.349 19.1848C176.951 19.5646 176.423 19.7545 175.765 19.7545C175.214 19.7545 174.763 19.5725 174.411 19.2085C174.059 18.8288 173.883 18.3778 173.883 17.8556C173.883 17.3175 174.013 16.8745 174.273 16.5263C174.533 16.1624 174.893 15.8459 175.352 15.5769C175.78 15.3237 176.301 15.1259 176.913 14.9835C177.54 14.8252 178.229 14.7461 178.979 14.7461ZM178.451 29.5576C179.186 29.5576 179.744 29.7317 180.127 30.0798C180.525 30.428 180.724 30.9344 180.724 31.599C180.724 32.2636 180.525 32.77 180.127 33.1181C179.744 33.4662 179.186 33.6403 178.451 33.6403C177.716 33.6403 177.15 33.4662 176.752 33.1181C176.37 32.77 176.178 32.2636 176.178 31.599C176.178 30.9344 176.37 30.428 176.752 30.0798C177.15 29.7317 177.716 29.5576 178.451 29.5576Z" fill="#292929"/>
<path d="M167.31 32.0664C167.984 32.0664 168.578 32.1679 169.094 32.371C169.61 32.5649 170.008 32.851 170.288 33.2295C170.577 33.608 170.721 34.051 170.721 34.5587C170.721 35.3157 170.397 35.9572 169.75 36.4834C169.112 37.0095 168.233 37.3926 167.114 37.6326V39.6542H166.851V37.508C167.455 37.1941 167.857 36.8249 168.058 36.4003C168.268 35.9664 168.373 35.4403 168.373 34.8218C168.373 33.9818 168.242 33.3587 167.979 32.9526C167.717 32.5464 167.363 32.3433 166.917 32.3433C166.672 32.3433 166.458 32.3664 166.274 32.4126C166.09 32.4587 165.959 32.5233 165.88 32.6064C166.169 32.7172 166.383 32.8741 166.523 33.0772C166.663 33.271 166.733 33.5203 166.733 33.8249C166.733 34.1572 166.615 34.4341 166.379 34.6557C166.152 34.8772 165.85 34.988 165.474 34.988C165.159 34.988 164.901 34.8818 164.7 34.6695C164.499 34.448 164.398 34.1849 164.398 33.8803C164.398 33.5664 164.472 33.308 164.621 33.1049C164.77 32.8926 164.975 32.7079 165.238 32.551C165.483 32.4033 165.78 32.2879 166.13 32.2049C166.488 32.1126 166.882 32.0664 167.31 32.0664ZM167.009 40.7065C167.428 40.7065 167.748 40.808 167.966 41.0111C168.194 41.2142 168.307 41.5096 168.307 41.8972C168.307 42.2849 168.194 42.5803 167.966 42.7834C167.748 42.9865 167.428 43.088 167.009 43.088C166.589 43.088 166.265 42.9865 166.038 42.7834C165.819 42.5803 165.71 42.2849 165.71 41.8972C165.71 41.5096 165.819 41.2142 166.038 41.0111C166.265 40.808 166.589 40.7065 167.009 40.7065Z" fill="#292929"/>
<path fill-rule="evenodd" clip-rule="evenodd" d="M35.9676 138.321C36.0664 137.92 32.5097 113.056 23.124 107.522C23.124 107.522 28.8542 121.638 28.4591 137.92L35.9676 138.321Z" fill="#31B057"/>
<path fill-rule="evenodd" clip-rule="evenodd" d="M33.497 137.92C33.497 137.92 32.509 110.169 23.1233 94.0479C23.1233 94.0479 37.5476 96.6143 40.1164 137.92H33.497Z" fill="#289047"/>
<path fill-rule="evenodd" clip-rule="evenodd" d="M34.4857 138.321C34.4857 138.321 37.1532 103.189 31.6206 77.4453C31.6206 77.4453 41.5667 89.8769 41.5667 137.92L34.4857 138.321Z" fill="#31B057"/>
<path fill-rule="evenodd" clip-rule="evenodd" d="M49.3045 138.321C49.2057 137.92 52.7624 113.056 62.1481 107.522C62.1481 107.522 56.4179 121.638 56.8131 137.92L49.3045 138.321Z" fill="#31B057"/>
<path fill-rule="evenodd" clip-rule="evenodd" d="M51.7752 137.92C51.7752 137.92 52.7631 110.169 62.1488 94.0479C62.1488 94.0479 47.7245 96.6143 45.1558 137.92H51.7752Z" fill="#289047"/>
<path fill-rule="evenodd" clip-rule="evenodd" d="M45.7652 141.09C45.7652 141.09 44.4833 104.46 43.6573 73.7451C43.6573 73.7451 38.6851 92.6464 38.6851 140.689L45.7652 141.09Z" fill="#289047"/>
<path fill-rule="evenodd" clip-rule="evenodd" d="M50.1289 138.321C50.1289 138.321 47.4614 103.189 52.994 77.4453C52.994 77.4453 43.0487 89.8769 43.0487 137.92L50.1289 138.321Z" fill="#31B057"/>
<path fill-rule="evenodd" clip-rule="evenodd" d="M22.6198 142.45L29.7031 179.961H43.0486V142.422L22.6198 142.45Z" fill="#292929"/>
<path fill-rule="evenodd" clip-rule="evenodd" d="M63.4774 142.45L56.3964 179.96H43.0486V142.422L63.4774 142.45Z" fill="#525252"/>
<path d="M59.5935 176.532H26.5037V180.106H59.5935V176.532Z" fill="#525252"/>
<path d="M59.5935 176.532H43.0486V180.106H59.5935V176.532Z" fill="#7A7A7A"/>
<path d="M68.3833 137.092H17.7131V142.451H68.3833V137.092Z" fill="#525252"/>
<path d="M68.3833 137.092H43.0486V142.451H68.3833V137.092Z" fill="#7A7A7A"/>
<path fill-rule="evenodd" clip-rule="evenodd" d="M202.874 138.321C202.973 137.92 199.416 113.056 190.031 107.522C190.031 107.522 195.761 121.638 195.366 137.92L202.874 138.321Z" fill="#31B057"/>
<path fill-rule="evenodd" clip-rule="evenodd" d="M200.401 137.92C200.401 137.92 199.413 110.169 190.028 94.0479C190.028 94.0479 204.452 96.6143 207.021 137.92H200.401Z" fill="#289047"/>
<path fill-rule="evenodd" clip-rule="evenodd" d="M201.389 138.321C201.389 138.321 204.06 103.189 198.527 77.4453C198.527 77.4453 208.473 89.8769 208.473 137.92L201.389 138.321Z" fill="#31B057"/>
<path fill-rule="evenodd" clip-rule="evenodd" d="M216.209 138.321C216.11 137.92 219.667 113.056 229.052 107.522C229.052 107.522 223.322 121.638 223.717 137.92L216.209 138.321Z" fill="#31B057"/>
<path fill-rule="evenodd" clip-rule="evenodd" d="M218.682 137.92C218.682 137.92 219.67 110.169 229.056 94.0479C229.056 94.0479 214.631 96.6143 212.062 137.92H218.682Z" fill="#289047"/>
<path fill-rule="evenodd" clip-rule="evenodd" d="M212.669 141.091C212.669 141.091 211.387 104.46 210.561 73.7461C210.561 73.7461 205.589 92.6474 205.589 140.69L212.669 141.091Z" fill="#289047"/>
<path fill-rule="evenodd" clip-rule="evenodd" d="M217.032 138.321C217.032 138.321 214.365 103.191 219.897 77.4453C219.897 77.4453 209.952 89.8769 209.952 137.92L217.032 138.321Z" fill="#31B057"/>
<path fill-rule="evenodd" clip-rule="evenodd" d="M189.523 142.45L196.604 179.96H209.951V142.422L189.523 142.45Z" fill="#292929"/>
<path fill-rule="evenodd" clip-rule="evenodd" d="M230.379 142.45L223.298 179.96H209.952V142.422L230.379 142.45Z" fill="#525252"/>
<path d="M226.497 176.532H193.407V180.106H226.497V176.532Z" fill="#525252"/>
<path d="M226.497 176.532H209.952V180.106H226.497V176.532Z" fill="#7A7A7A"/>
<path d="M235.287 137.092H184.617V142.451H235.287V137.092Z" fill="#525252"/>
<path d="M235.287 137.092H209.952V142.451H235.287V137.092Z" fill="#7A7A7A"/>
<path d="M249.152 180.015H3.84834C1.72296 180.015 0 181.731 0 183.848V184.167C0 186.284 1.72296 188.001 3.84834 188.001H249.152C251.277 188.001 253 186.284 253 184.167V183.848C253 181.731 251.277 180.015 249.152 180.015Z" fill="#525252"/>
<path d="M199.377 162.382H51.4534C46.6426 162.382 42.7427 166.266 42.7427 171.058V171.43C42.7427 176.222 46.6426 180.106 51.4534 180.106H199.377C204.188 180.106 208.088 176.222 208.088 171.43V171.058C208.088 166.266 204.188 162.382 199.377 162.382Z" fill="#292929"/>
<path d="M154.724 126.831C154.724 126.831 156.922 140.642 145.811 140.614C134.7 140.587 148.656 125.244 148.656 125.244L151.453 124.373L154.724 126.831Z" fill="#F5927E"/>
<path d="M104.373 137.023L102.772 149.771L142.372 154.707L143.974 141.958L104.373 137.023Z" fill="#292929"/>
<path d="M145.809 113.969C145.809 113.969 149.548 111.014 150.189 103.332C150.535 99.1731 149.786 93.9803 149.056 90.2054C148.773 88.7353 148.028 87.3927 146.93 86.3707C145.832 85.3487 144.437 84.7001 142.945 84.5182L113.852 80.9756C113.852 80.9756 109.143 90.6943 107.902 98.0646C106.622 105.666 107.252 130.8 104.372 137.024C104.372 137.024 109.455 141.106 123.746 142.888C138.037 144.67 143.972 141.96 143.972 141.96C142.72 135.22 140.653 129.946 140.746 128.39C141.548 123.318 143.263 118.433 145.809 113.969Z" fill="#ED0A2A"/>
<path d="M148.845 87.8536C150.584 93.3267 154.335 106.827 156.158 126.476L143.101 129.714L141.152 89.24C141.126 88.709 141.209 88.1784 141.395 87.6803C141.582 87.1822 141.868 86.727 142.236 86.3423C142.604 85.9575 143.047 85.6513 143.538 85.442C144.028 85.2328 144.556 85.1249 145.09 85.125C145.926 85.1238 146.74 85.3875 147.415 85.8781C148.09 86.3687 148.591 87.0606 148.845 87.8536Z" fill="#ED0A2A"/>
<path d="M143.101 129.714L156.158 126.476C156.053 125.34 155.941 124.227 155.823 123.134L142.927 126.099L143.101 129.714Z" fill="#F84F67"/>
<path d="M120.93 90.4705C121.18 95.45 134.135 98.51 138.42 94.4234C142.705 90.3367 140.258 84.6448 140.258 84.6448L139.711 84.1016L124.852 82.25C124.09 82.9034 120.708 86.0509 120.93 90.4705Z" fill="#C40823"/>
<path d="M118.255 94.2139L114.453 131.777L131.091 140.353L137.967 142.129L138.995 143.632L109.006 145.865L104.374 136.175V122.429C104.374 122.429 105.503 109.693 109.574 107.419C113.646 105.144 118.255 94.2139 118.255 94.2139Z" fill="#C40823"/>
<path d="M141.797 106.953L137.991 93.9885L134.276 92.5801L131.09 137.022L138.711 138.312L141.299 131.217C140.996 130.301 140.81 129.35 140.745 128.388C141.094 125.957 141.689 123.568 142.521 121.257L141.797 106.953Z" fill="#C40823"/>
<path d="M134.938 111.708C134.938 111.708 138.15 116.764 143.912 117.67C144.463 116.397 145.097 115.161 145.809 113.97C145.809 113.97 139.354 114.976 134.938 111.708Z" fill="#292929"/>
<path d="M127.326 76.8017C127.023 80.4378 126.033 83.9841 124.408 87.2542C122.612 90.9716 132.391 94.0246 136.247 91.3408C140.104 88.6571 135.391 81.9606 137.708 78.2723C140.025 74.584 127.326 76.8017 127.326 76.8017Z" fill="#F8AB98"/>
<path d="M127.609 76.7548L127.303 77.1484C127.284 77.3806 127.25 77.7239 127.19 78.1718C128.198 79.5991 131.226 84.4699 132.102 92.3583C133.555 92.4473 135.001 92.0934 136.247 91.3435C140.1 88.6668 135.391 81.9633 137.708 78.275C139.82 74.9173 129.463 76.4556 127.609 76.7548Z" fill="#F5927E"/>
<path d="M134.356 84.2519C134.356 84.2519 133.514 123.684 137.16 134.707C140.806 145.731 148.026 141.699 149.199 134.342C150.373 126.985 142.819 83.6426 142.819 83.6426L134.356 84.2519Z" fill="#F8AB98"/>
<path d="M140.751 128.387C137.601 125.605 135.521 117.838 134.687 114.184C135.077 122.625 135.811 130.62 137.163 134.707C140.809 145.729 148.029 141.699 149.202 134.342C145.705 139.019 144.925 132.081 140.751 128.387Z" fill="#F5927E"/>
<path d="M134.276 91.6311C137.714 87.9145 143.159 85.6251 143.159 85.6251C142.943 84.36 142.819 83.6396 142.819 83.6396L134.356 84.2521C134.356 84.2521 134.294 87.1681 134.276 91.6311Z" fill="#F5927E"/>
<path d="M135.752 84.9122C135.752 84.9122 133.511 85.2909 133.404 82.7425L133.337 81.1735C133.327 80.9303 133.367 80.6875 133.454 80.4599C133.541 80.2324 133.673 80.0249 133.843 79.85C134.013 79.6751 134.217 79.5364 134.443 79.4425C134.668 79.3486 134.911 79.3014 135.155 79.3038L136.446 79.3172L135.752 84.9122Z" fill="#F5927E"/>
<path d="M133.567 153.328C125.549 149.703 117.738 145.637 110.172 141.149C98.9724 134.371 75.1583 132.676 66.9329 137.337C58.7075 141.997 60.9616 148.904 74.8722 156.258C93.612 166.166 133.564 164.025 133.564 164.025C133.564 164.025 136.579 163.76 136.579 158.571C136.582 154.317 133.567 153.328 133.567 153.328Z" fill="#7A7A7A"/>
<path d="M115.816 144.415C115.816 144.415 121.418 147.478 121.418 149.465C121.418 151.451 116.123 150.267 114.198 149.465C112.071 148.767 109.895 148.231 107.687 147.861C107.687 147.861 112.034 150.12 111.317 153.329C110.6 156.538 98.1843 159.344 94.0918 159.439C92.0755 159.486 92.7568 160.744 93.9661 162.008C99.8118 162.953 105.705 163.578 111.62 163.878H111.637L118.335 161.496C119.484 160.718 120.693 160.031 121.95 159.441C124.183 158.372 125.902 155.819 126.613 155.454C127.076 155.218 128.679 153.045 129.741 151.559C126.399 149.972 121.251 147.433 115.816 144.415Z" fill="#525252"/>
<path d="M133.567 153.329C133.567 153.329 143.339 156.91 151.255 158.84C157.093 160.118 163.185 159.564 168.693 157.252C170.713 156.299 178.475 153.08 181.771 156.436C185.066 159.793 181.983 163.924 174.115 165.936C166.247 167.949 162.01 167.097 162.01 167.097C161.2 167.295 160.371 167.411 159.538 167.442C158.322 167.485 157.635 167.031 156.465 166.713C155.295 166.394 139.346 164.351 133.567 164.03V153.329Z" fill="#F5927E"/>
<path d="M133.567 156.082C128.431 155.945 123.351 154.975 118.528 153.212C117.311 152.721 116.157 152.154 115.032 151.576L111.633 149.854C109.378 148.701 107.128 147.553 104.836 146.509C102.578 145.428 100.255 144.487 97.8809 143.692C97.2897 143.511 96.6953 143.33 96.1017 143.167C95.5034 143.045 94.9067 142.856 94.306 142.787L93.405 142.653C93.1054 142.623 92.8082 142.623 92.5095 142.601C91.9278 142.545 91.2654 142.595 90.645 142.593C88.1237 142.656 85.5992 142.801 83.0677 142.986C80.5329 143.119 77.9855 143.38 75.4358 143.267C77.965 143.001 80.4634 142.586 82.9776 142.178C85.4933 141.798 88.0296 141.476 90.5833 141.299C91.8933 141.16 93.2151 141.177 94.521 141.349C95.1857 141.407 95.8125 141.585 96.4614 141.697C97.0937 141.849 97.726 142.02 98.3512 142.191C100.806 142.97 103.207 143.91 105.538 145.005C107.854 146.097 110.122 147.261 112.363 148.469C114.604 149.677 116.82 150.967 119.032 152.029C121.328 153.034 123.703 153.851 126.133 154.469C128.573 155.155 131.062 155.638 133.567 156.082Z" fill="#525252"/>
<path d="M120.137 153.328C120.137 153.328 110.365 156.909 102.449 158.839C96.6117 160.118 90.5199 159.563 85.012 157.251C82.9918 156.298 75.2295 153.079 71.9336 156.435C68.6377 159.792 71.721 163.923 79.5892 165.935C87.4574 167.948 91.6946 167.097 91.6946 167.097C92.5049 167.294 93.3332 167.41 94.1669 167.441C95.3825 167.484 96.0693 167.03 97.2391 166.712C98.4088 166.393 114.358 164.35 120.137 164.029V153.328Z" fill="#F8AB98"/>
<path d="M114.861 159.499C113.959 163.624 103.571 165.683 99.6853 166.313C104.634 165.609 115.564 164.276 120.136 164.025V153.328C120.136 153.328 119.353 153.615 118.052 154.07C116.89 154.833 115.543 156.369 114.861 159.499Z" fill="#F5927E"/>
<path d="M120.137 153.328C128.156 149.703 135.966 145.637 143.532 141.149C154.732 134.371 178.546 132.676 186.771 137.337C194.997 141.997 192.742 148.904 178.832 156.258C160.092 166.166 120.14 164.025 120.14 164.025C120.14 164.025 117.125 163.76 117.125 158.571C117.119 154.317 120.137 153.328 120.137 153.328Z" fill="#7A7A7A"/>
<path d="M120.137 156.082C122.642 155.638 125.132 155.155 127.566 154.47C129.996 153.852 132.371 153.036 134.667 152.03C136.88 150.968 139.107 149.664 141.336 148.47C143.566 147.276 145.842 146.1 148.161 145.006C150.492 143.911 152.893 142.971 155.348 142.192C155.976 142.021 156.603 141.85 157.238 141.698C157.887 141.585 158.514 141.408 159.179 141.35C160.485 141.178 161.806 141.161 163.116 141.3C165.67 141.477 168.206 141.799 170.722 142.179C173.236 142.587 175.732 143.002 178.264 143.268C175.714 143.379 173.166 143.12 170.632 142.987C168.103 142.802 165.574 142.656 163.055 142.594C162.435 142.594 161.772 142.546 161.19 142.602C160.891 142.624 160.594 142.624 160.294 142.654L159.393 142.788C158.793 142.857 158.196 143.046 157.598 143.168C157.002 143.331 156.412 143.512 155.818 143.693C153.444 144.488 151.121 145.429 148.863 146.51C146.571 147.554 144.323 148.702 142.066 149.855L138.667 151.577C137.54 152.155 136.388 152.722 135.171 153.213C130.349 154.975 125.272 155.944 120.137 156.082Z" fill="#525252"/>
<path d="M137.182 45.5906C137.182 45.5906 120.407 41.7598 120.943 60.1313C120.943 60.1313 121.18 78.1847 132.413 81.0724C144.013 81.2298 149.011 63.8763 149.011 63.8763C154.377 46.2889 137.182 45.5906 137.182 45.5906Z" fill="#F8AB98"/>
<path d="M153.614 55.4835C153.52 53.9782 152.938 52.4988 153.111 51.0006C153.267 49.6396 154.034 48.3934 154.107 47.0262C154.25 44.3527 151.741 42.2742 149.248 41.2869C146.756 40.2996 143.96 39.8765 141.848 38.2242C140.266 36.9866 139.214 35.1609 137.588 33.9819C136.299 33.112 134.776 32.6548 133.22 32.6714C131.665 32.6881 130.151 33.1778 128.883 34.0751C127.643 35.0123 126.676 36.2621 126.082 37.696C125.488 39.1299 125.288 40.696 125.502 42.2331C124.37 41.9732 123.183 42.1123 122.143 42.6267C121.103 43.1411 120.274 43.999 119.796 45.0546C119.362 46.1298 119.222 47.3009 119.391 48.4479C119.56 49.5949 120.031 50.6767 120.756 51.5826L120.767 51.595C120.264 53.154 119.572 56.4685 121.526 59.2832C122.213 57.4298 122.707 55.5108 123 53.5563C124.123 54.2373 125.363 54.7046 126.657 54.9345C128.534 55.2722 130.463 55.1748 132.295 54.6497C134.596 53.9881 136.906 52.6457 139.228 53.2255C140.568 53.6644 141.765 54.4549 142.694 55.5139C143.203 56.1033 143.822 56.5887 144.516 56.9435C146.048 57.584 148.144 56.885 149.24 58.1294C149.305 58.2079 149.364 58.2912 149.416 58.3785C149.279 60.0751 149.29 61.7805 149.449 63.4752C150.199 62.835 150.807 62.0472 151.237 61.1611C152.034 60.4532 152.662 59.5754 153.073 58.5926C153.485 57.6098 153.669 56.5472 153.614 55.4835Z" fill="#292929"/>
<path d="M135.284 76.6364C135.284 76.6364 135.164 78.7313 135.17 80.7545C138.204 79.9055 140.884 78.1094 142.817 75.6303C139.99 75.4539 135.703 75.524 135.284 76.6364Z" fill="#F5927E"/>
<path d="M96.893 126.476C96.893 126.476 95.1304 134.34 97.051 136.915C100.541 141.599 139.863 143.242 139.863 143.242L136.514 134.869L110.884 129.28L96.893 126.476Z" fill="#F8AB98"/>
<path d="M96.893 126.476L110.883 129.283L96.3848 129.512C96.6013 127.79 96.893 126.476 96.893 126.476Z" fill="#F5927E"/>
<path d="M134.392 132.878C134.392 132.878 134.327 130.615 136.876 130.864L138.445 131.017C138.688 131.04 138.924 131.113 139.138 131.23C139.352 131.348 139.54 131.508 139.691 131.7C139.841 131.892 139.95 132.113 140.012 132.348C140.074 132.584 140.087 132.83 140.051 133.071L139.858 134.343L134.392 132.878Z" fill="#F5927E"/>
<path d="M141.883 133.324C141.883 133.324 134.825 131.921 134.093 132.565C133.36 133.209 131.753 142.248 133.46 142.892C135.168 143.536 140.741 144 141.199 143.235C141.657 142.47 143.383 134.137 141.883 133.324Z" fill="#F8AB98"/>
<path d="M102.201 93.071C100.395 98.6889 96.5404 118.963 94.9486 127.468L111.496 129.605C113.566 122.341 116.159 100.18 118.007 94.9541C121.234 85.8416 117.569 79.9403 110.639 80.8803C105.256 81.6109 102.201 93.071 102.201 93.071Z" fill="#ED0A2A"/>
<path d="M138.711 138.312C138.743 137.944 142.279 138.09 142.299 138.091C142.179 139.051 142.015 140.017 141.843 140.853L142.152 139.146C142.152 139.146 138.68 138.681 138.711 138.312Z" fill="#F5927E"/>
<path d="M141.658 141.696C141.641 141.696 138.677 141.211 138.588 141.005C138.5 140.8 141.824 140.886 141.836 140.886C141.778 141.176 141.718 141.444 141.658 141.696Z" fill="#F5927E"/>
<path d="M139.249 135.571C139.159 135.242 141.271 135.296 142.476 135.351C142.482 135.611 142.476 135.885 142.466 136.172C142.421 136.17 139.373 136.027 139.249 135.571Z" fill="#F5927E"/>
<path d="M135.575 77.4607C135.575 77.4607 135.163 84.6177 135.904 85.2546C136.646 85.8915 145.858 86.2143 146.258 84.4406C146.658 82.6669 146.347 77.1049 145.522 76.7593C144.697 76.4137 136.175 75.8705 135.575 77.4607Z" fill="#F8AB98"/>
<path d="M140.976 79.8956C140.605 79.9161 140.259 76.408 140.258 76.3868C141.229 76.3718 142.211 76.4002 143.067 76.4529L141.329 76.3852C141.329 76.3852 141.347 79.8744 140.976 79.8956Z" fill="#F5927E"/>
<path d="M143.93 76.5183C143.93 76.5356 143.862 79.5264 143.67 79.6421C143.478 79.7578 143.102 76.4671 143.101 76.4561C143.397 76.4742 143.675 76.4954 143.93 76.5183Z" fill="#F5927E"/>
<path d="M138.177 79.7469C137.861 79.8815 137.624 77.7906 137.51 76.5979C137.767 76.5559 138.04 76.521 138.327 76.4932C138.331 76.5357 138.612 79.5611 138.177 79.7469Z" fill="#F5927E"/>
<path d="M112.184 126.759L95.5414 124.305C95.3209 125.473 95.1194 126.543 94.9463 127.468L111.494 129.605C111.72 128.82 111.95 127.852 112.184 126.759Z" fill="#F84F67"/>
<g clip-path="url(#clip1)">
<path d="M101.736 6.08691H73.0695C71.6736 6.08681 70.2913 6.36057 69.0017 6.89258C67.712 7.42458 66.5402 8.20441 65.5531 9.18752C64.5661 10.1706 63.7831 11.3378 63.2489 12.6223C62.7146 13.9068 62.4397 15.2836 62.4397 16.674V22.5272C62.4397 23.9176 62.7146 25.2944 63.2489 26.5789C63.7831 27.8634 64.5661 29.0306 65.5531 30.0137C66.5402 30.9968 67.712 31.7766 69.0017 32.3086C70.2913 32.8406 71.6736 33.1144 73.0695 33.1143H101.736L107.95 37.645L109.149 30.107C110.168 29.1227 110.978 27.9445 111.53 26.6424C112.083 25.3403 112.367 23.9409 112.366 22.5272V16.6708C112.365 13.8634 111.245 11.1712 109.252 9.18639C107.258 7.20159 104.555 6.08671 101.736 6.08691Z" fill="#FFC248"/>
<path d="M75.4769 16.583C74.8922 16.583 74.3207 16.7557 73.8346 17.0792C73.3485 17.4028 72.9696 17.8626 72.7459 18.4006C72.5222 18.9386 72.4636 19.5306 72.5777 20.1018C72.6917 20.6729 72.9733 21.1976 73.3867 21.6093C73.8001 22.0211 74.3268 22.3015 74.9002 22.4151C75.4736 22.5287 76.068 22.4704 76.6081 22.2476C77.1482 22.0247 77.6099 21.6474 77.9347 21.1632C78.2595 20.679 78.4329 20.1097 78.4329 19.5273C78.433 19.1407 78.3566 18.7577 78.2081 18.4005C78.0596 18.0432 77.8418 17.7186 77.5673 17.4452C77.2928 17.1717 76.9669 16.9549 76.6082 16.8069C76.2495 16.659 75.8651 16.5829 75.4769 16.583Z" fill="white"/>
<path d="M87.0653 16.583C86.4806 16.5829 85.9091 16.7554 85.4228 17.0788C84.9366 17.4023 84.5576 17.8621 84.3338 18.4001C84.1099 18.9381 84.0513 19.5301 84.1652 20.1013C84.2792 20.6725 84.5607 21.1972 84.974 21.609C85.3874 22.0209 85.9141 22.3014 86.4875 22.4151C87.061 22.5287 87.6554 22.4705 88.1956 22.2477C88.7357 22.0248 89.1975 21.6474 89.5223 21.1632C89.8471 20.679 90.0205 20.1097 90.0205 19.5273C90.0206 19.1407 89.9443 18.7579 89.7958 18.4007C89.6473 18.0434 89.4297 17.7189 89.1552 17.4454C88.8808 17.172 88.555 16.9551 88.1964 16.8071C87.8378 16.6592 87.4535 16.583 87.0653 16.583Z" fill="white"/>
<path d="M98.9447 16.583C98.36 16.5829 97.7884 16.7554 97.3022 17.0788C96.816 17.4023 96.437 17.8621 96.2132 18.4001C95.9893 18.9381 95.9306 19.5301 96.0446 20.1013C96.1586 20.6725 96.4401 21.1972 96.8534 21.609C97.2668 22.0209 97.7935 22.3014 98.3669 22.4151C98.9404 22.5287 99.5348 22.4705 100.075 22.2477C100.615 22.0248 101.077 21.6474 101.402 21.1632C101.727 20.679 101.9 20.1097 101.9 19.5273C101.9 18.7466 101.589 17.9978 101.034 17.4457C100.48 16.8935 99.7286 16.5832 98.9447 16.583Z" fill="white"/>
</g>
</g>
<defs>
<linearGradient id="paint0_linear" x1="132.023" y1="0" x2="132.023" y2="180" gradientUnits="userSpaceOnUse">
<stop stop-color="#EBEBEB"/>
<stop offset="1" stop-color="#EBEBEB" stop-opacity="0"/>
</linearGradient>
<clipPath id="clip0">
<rect width="253" height="188" fill="white"/>
</clipPath>
<clipPath id="clip1">
<rect width="49.9264" height="31.5612" fill="white" transform="translate(62.4397 6.08691)"/>
</clipPath>
</defs>
</svg>
