<svg width="180" height="180" viewBox="0 0 180 180" fill="none" xmlns="http://www.w3.org/2000/svg">
<circle cx="90" cy="90" r="90" fill="#FFCFC5"/>
<g clip-path="url(#clip0)">
<path d="M90.0001 140C117.614 140 140 117.614 140 90.0001C140 62.3858 117.614 40 90.0001 40C62.3858 40 40 62.3858 40 90.0001C40 117.614 62.3858 140 90.0001 140Z" fill="#ED0A2A"/>
<path d="M140 89.9998C140 117.5 117.5 140 90.0001 140C74.0626 140 60.0001 132.812 50.9375 121.25C59.375 128.125 70.3125 132.188 82.1875 132.188C109.688 132.188 132.188 109.688 132.188 82.1875C132.188 70.3126 128.125 59.375 121.25 50.9375C132.813 59.9997 140 74.0622 140 89.9998Z" fill="#C40823"/>
<path fill-rule="evenodd" clip-rule="evenodd" d="M107.536 107.536C105.583 109.488 102.417 109.488 100.464 107.536L71.5355 78.6066C69.5829 76.654 69.5829 73.4882 71.5355 71.5355V71.5355C73.4882 69.5829 76.654 69.5829 78.6066 71.5355L107.536 100.464C109.488 102.417 109.488 105.583 107.536 107.536V107.536Z" fill="white"/>
<path fill-rule="evenodd" clip-rule="evenodd" d="M71.5358 107.536C69.5831 105.583 69.5831 102.417 71.5357 100.464L100.465 71.5355C102.417 69.5829 105.583 69.5829 107.536 71.5355V71.5355C109.488 73.4882 109.488 76.654 107.536 78.6066L78.6068 107.536C76.6542 109.488 73.4884 109.488 71.5358 107.536V107.536Z" fill="white"/>
</g>
<circle cx="50" cy="34" r="10" fill="#ED0A2A"/>
<circle cx="129" cy="150" r="10" fill="#ED0A2A"/>
<circle cx="75" cy="33" r="5" fill="#ED0A2A"/>
<circle cx="104" cy="149" r="5" fill="#ED0A2A"/>
<circle cx="156" cy="74" r="5" fill="#ED0A2A"/>
<circle cx="29" cy="108" r="5" fill="#ED0A2A"/>
<defs>
<clipPath id="clip0">
<rect width="100" height="100" fill="white" transform="translate(40 40)"/>
</clipPath>
</defs>
</svg>
