<svg width="180" height="180" viewBox="0 0 180 180" fill="none" xmlns="http://www.w3.org/2000/svg">
<circle cx="90" cy="90" r="90" fill="#DFF6E6"/>
<g clip-path="url(#clip0)">
<path d="M90.0001 140C117.614 140 140 117.614 140 90.0001C140 62.3858 117.614 40 90.0001 40C62.3858 40 40 62.3858 40 90.0001C40 117.614 62.3858 140 90.0001 140Z" fill="#31B057"/>
<path d="M140 90.0003C140 117.5 117.5 140 90.0001 140C74.0626 140 60.0001 132.813 50.9375 121.25C59.375 128.126 70.3125 132.188 82.1875 132.188C109.688 132.188 132.188 109.688 132.188 82.1879C132.188 70.313 128.125 59.3755 121.25 50.938C132.813 60.0002 140 74.0627 140 90.0003Z" fill="#289047"/>
<path d="M117.188 75.6251L84.6876 111.25C82.5 113.75 78.7502 113.75 76.5626 111.25L62.8125 95.9377C60.9376 93.7501 60.9376 90.3127 63.125 88.1251C65.3126 86.2502 68.75 86.2502 70.9376 88.4375L80.6251 99.3751L109.063 68.4376C111.25 66.25 114.688 65.9375 116.875 68.1251C119.063 70.0001 119.063 73.7501 117.188 75.6251Z" fill="white"/>
</g>
<circle cx="50" cy="34" r="10" fill="#B7EBC7"/>
<circle cx="129" cy="150" r="10" fill="#B7EBC7"/>
<circle cx="75" cy="33" r="5" fill="#B7EBC7"/>
<circle cx="104" cy="149" r="5" fill="#B7EBC7"/>
<circle cx="156" cy="74" r="5" fill="#B7EBC7"/>
<circle cx="29" cy="108" r="5" fill="#B7EBC7"/>
<defs>
<clipPath id="clip0">
<rect width="100" height="100" fill="white" transform="translate(40 40)"/>
</clipPath>
</defs>
</svg>
