<svg width="180" height="180" viewBox="0 0 180 180" fill="none" xmlns="http://www.w3.org/2000/svg">
<circle cx="90" cy="90" r="90" fill="#FFF2C5"/>
<g clip-path="url(#clip0)">
<path d="M90.0001 140C117.614 140 140 117.614 140 90.0001C140 62.3858 117.614 40 90.0001 40C62.3858 40 40 62.3858 40 90.0001C40 117.614 62.3858 140 90.0001 140Z" fill="#FFC248"/>
<path d="M140 89.9998C140 117.5 117.5 140 90.0001 140C74.0626 140 60.0001 132.812 50.9375 121.25C59.375 128.125 70.3125 132.188 82.1875 132.188C109.688 132.188 132.188 109.688 132.188 82.1875C132.188 70.3126 128.125 59.375 121.25 50.9375C132.813 59.9997 140 74.0622 140 89.9998Z" fill="#FFCF70"/>
<path fill-rule="evenodd" clip-rule="evenodd" d="M96.2231 92.2305C95.5498 94.9086 92.833 96.5337 90.1549 95.8604L67.8491 90.2524C65.171 89.579 63.5458 86.8622 64.2191 84.1841V84.1841C64.8925 81.506 67.6093 79.8809 70.2874 80.5542L92.5932 86.1623C95.2713 86.8356 96.8965 89.5524 96.2231 92.2305V92.2305Z" fill="white"/>
<path fill-rule="evenodd" clip-rule="evenodd" d="M90.3989 94.8911C87.7208 94.2178 86.0956 91.501 86.769 88.8229L95.0592 55.8491C95.7325 53.171 98.4493 51.5458 101.127 52.2191V52.2191C103.805 52.8925 105.431 55.6093 104.757 58.2874L96.4671 91.2612C95.7938 93.9393 93.077 95.5645 90.3989 94.8911V94.8911Z" fill="white"/>
</g>
<circle cx="50" cy="34" r="10" fill="#F6B545"/>
<circle cx="129" cy="150" r="10" fill="#F6B545"/>
<circle cx="75" cy="33" r="5" fill="#F6B545"/>
<circle cx="104" cy="149" r="5" fill="#F6B545"/>
<circle cx="156" cy="74" r="5" fill="#F6B545"/>
<circle cx="29" cy="108" r="5" fill="#F6B545"/>
<defs>
<clipPath id="clip0">
<rect width="100" height="100" fill="white" transform="translate(40 40)"/>
</clipPath>
</defs>
</svg>
